<?xml version="1.0" encoding="utf-8"?>
<!-- Generator: Adobe Illustrator 17.0.1, SVG Export Plug-In . SVG Version: 6.00 Build 0)  -->
<!DOCTYPE svg PUBLIC "-//W3C//DTD SVG 1.1//EN" "http://www.w3.org/Graphics/SVG/1.1/DTD/svg11.dtd">
<svg version="1.1" id="Layer_2" xmlns="http://www.w3.org/2000/svg" xmlns:xlink="http://www.w3.org/1999/xlink" x="0px" y="0px"
	 width="864px" height="864px" viewBox="0 0 864 864" enable-background="new 0 0 864 864" xml:space="preserve">
<path d="M589.461,562.445"/>
<path fill="#FFD652" d="M231.152,106.311c-74.548,0.648-92.893,55.472-97.911,76.187v15.218l-12.154,17.098v177.595l12.154,14.039
	v26.646c4.847,26.556,23.729,33.918,23.729,33.918c15.954,14.114,74.182,10.193,74.182,10.193s58.229,3.921,74.182-10.193
	c0,0,17.543-6.83,23.155-31.095V180.212C322.699,158.028,303.104,106.936,231.152,106.311z"/>
<g>
	<path fill="#FFFFFF" d="M231.152,111.016c29.731,0.267,53.299,9.478,70.043,27.376c10.479,11.201,18.078,25.474,22.589,42.43
		v254.547c-5.052,20.927-19.566,27.019-20.158,27.258l-0.782,0.304l-0.628,0.558c-6.833,6.047-26.282,9.514-53.361,9.514
		c-9.979,0-17.315-0.485-17.388-0.489l-0.316-0.021l-0.315,0.021c-0.073,0.004-7.411,0.489-17.387,0.489
		c-27.079,0-46.528-3.467-53.362-9.514l-0.632-0.545l-0.748-0.305c-0.67-0.271-16.376-6.881-20.763-29.979V183.064
		c4.224-17.11,11.522-31.597,21.697-43.062C176.466,121.042,200.524,111.29,231.152,111.016"/>
</g>
<path d="M627.547,500.819c0,0-16.403,3.283-13.07,18.296c2.187,9.856,23,4.183,23,4.183s15.162-2.092,25.224-6.796v-20.91h-27.313
	C635.388,495.592,629.963,495.592,627.547,500.819z"/>
<path d="M706.425,500.819c0,0,16.403,3.283,13.07,18.296c-2.188,9.856-23,4.183-23,4.183s-15.162-2.092-25.224-6.796v-20.91h27.313
	C698.584,495.592,704.009,495.592,706.425,500.819z"/>
<path fill="#FFD652" d="M783.44,466.578c0,0,2.394-69.787-8.772-94.096l-3.988-44.694c0,0-2.392-136.439-3.988-139.575
	c-1.597-3.137-9.572-83.118-99.706-83.902c-90.134,0.785-98.108,80.766-99.704,83.902c-1.598,3.136-3.99,139.575-3.99,139.575
	l-3.989,44.694c-11.166,24.309-8.771,94.096-8.771,94.096c-5.584,12.547,18.346,23.523,12.76,0.785
	c-5.584-22.741,7.18-71.356,7.18-71.356c-11.964,55.673,22.332,69.004,22.332,69.004c15.954,14.114,74.182,10.193,74.182,10.193
	s58.229,3.921,74.182-10.193c0,0,34.297-13.331,22.333-69.004c0,0,12.764,48.615,7.18,71.356
	C765.095,490.103,789.024,479.125,783.44,466.578z"/>
<path d="M570.643,458.672c0,0-16.206-2.093-26.138,3.658c0,0,4.705,9.409,0,12.547c-4.706,3.136-1.568,25.615,0,27.185
	c1.568,1.567,5.228,17.771,15.16,15.158c9.932-2.612,8.886-8.887,6.795-13.591c-2.09-4.705-1.044,2.089,7.32-2.093
	c8.363-4.18-1.569-13.635-1.569-13.635s-3.66-14.07-5.751-14.595C564.37,472.786,570.643,458.672,570.643,458.672z"/>
<path d="M761.79,458.672c0,0,16.206-2.093,26.139,3.658c0,0-4.705,9.409,0,12.547c4.706,3.136,1.569,25.615,0,27.185
	c-1.568,1.567-5.229,17.771-15.162,15.158c-9.93-2.612-8.885-8.887-6.793-13.591c2.089-4.705,1.044,2.089-7.32-2.093
	c-8.362-4.18,1.567-13.635,1.567-13.635s3.661-14.07,5.753-14.595C768.062,472.786,761.79,458.672,761.79,458.672z"/>
<path fill="#3A53CE" d="M718.319,423.778c0,0-1.045-42.344-1.569-43.91l22.478-12.024c0,0,8.075-5.533,15.161-6.795
	c7.277-1.295,19.824-7.253,19.824-7.253s-0.025-8.43-2.639-24.112c0,0-5.161,12.023-14.049,14.114
	c-8.887,2.091-24.568,9.409-26.66,10.978c-2.092,1.57-16.729,7.318-16.729,7.318v-3.137c0,0-25.563,2.527-47.242,3.258
	c-21.681-0.729-47.245-3.258-47.245-3.258v3.137c0,0-14.635-5.748-16.727-7.318c-2.093-1.567-17.774-8.887-26.662-10.978
	s-14.048-14.114-14.048-14.114c-2.614,15.684-2.639,24.112-2.639,24.112s12.547,5.958,19.824,7.253
	c7.084,1.262,15.16,6.795,15.16,6.795l22.48,12.024c-0.524,1.566-1.568,43.91-1.568,43.91c-13.07,3.138-47.963-6.806-47.963-6.806
	c-1.54,40.297,18.108,51.827,45.479,58.613l3.724,1.372c0,0,12.939,16.468,11.513,21.965c0,0,9.727,8.626,33.771-0.784
	c0,0,3.661-17.067,0-20.36c-0.147-0.133-0.38-0.262-0.649-0.384c0.922-0.059,1.823-0.121,2.687-0.188
	c0.986-0.077,1.942-0.142,2.864-0.197c0.922,0.057,1.874,0.12,2.862,0.197c0.865,0.067,1.765,0.131,2.688,0.188
	c-0.27,0.122-0.502,0.251-0.651,0.384c-3.659,3.293,0,20.36,0,20.36c24.046,9.41,33.771,0.784,33.771,0.784
	c-1.426-5.497,11.512-21.965,11.512-21.965l3.724-1.372c27.373-6.786,47.019-18.316,45.48-58.613
	C766.281,416.974,731.389,426.916,718.319,423.778z"/>
<circle cx="628.145" cy="372.745" r="7.842"/>
<circle cx="705.513" cy="372.745" r="7.841"/>
<ellipse fill="#FFFFFF" cx="666.894" cy="199.322" rx="49.204" ry="35.285"/>
<g>
	<circle fill="#977756" cx="666.986" cy="199.322" r="16.859"/>
	<circle fill="#050505" cx="666.986" cy="199.322" r="7.737"/>
</g>
<path fill="#050505" d="M670.227,107.055c0.061-0.384,0.146-0.765,0.214-1.148c0.574-1.329,1.348-4.328,1.896-5.666
	c1.783-4.407,3.879-8.679,6.195-12.822c2.36-4.118,4.982-8.09,8.024-11.755c3.05-3.654,6.5-7.009,10.471-9.841
	c-4.481,1.938-8.575,4.848-12.16,8.25c-2.296,2.168-4.389,4.549-6.324,7.05c4.995-9.325,12.306-17.557,21.524-23.337
	c-5.06,2.451-9.844,5.604-14.081,9.439c-4.234,3.833-7.951,8.276-11.094,13.107c-1.123,1.724-2.147,3.511-3.127,5.324
	c1.007-4.12,2.269-8.176,3.819-12.12c2.509-6.216,5.755-12.147,9.863-17.523c4.107-5.37,9.042-10.167,14.62-14.303
	c-6.271,2.977-12.053,7.191-16.914,12.343c-2.412,2.532-4.605,5.282-6.572,8.193c0.165-0.637,0.314-1.273,0.484-1.909l-0.019-0.006
	c-0.262,0.555-0.504,1.12-0.753,1.68c0.567-2.265,1.153-4.527,1.803-6.777c0.79-2.704,1.705-5.371,2.686-8.034
	c-1.465,2.432-2.725,4.991-3.881,7.593c-1.176,2.597-2.223,5.253-3.159,7.945c-1.238,3.52-2.317,7.093-3.285,10.692
	c-0.03,0.067-0.061,0.133-0.092,0.201c-0.303-4.343-0.84-8.667-1.553-12.953c-0.478-2.904-1.121-5.777-1.872-8.617
	c-0.738-2.841-1.605-5.648-2.626-8.39c0.631,2.86,1.21,5.715,1.659,8.593c0.453,2.876,0.778,5.765,1.081,8.649
	c0.313,3.108,0.48,6.223,0.564,9.338c-0.605-2.701-1.342-5.375-2.246-7.996c-1.909-5.421-4.505-10.672-8.151-15.056
	c2.028,4.092,3.538,8.324,4.696,12.636c-1.231-3.009-2.649-5.94-4.3-8.743c-1.808-3.075-3.896-5.991-6.313-8.603
	c-2.408-2.595-5.063-5.042-8.196-6.66c5.553,4.311,9.298,10.32,12.292,16.445c2.896,6.098,4.867,12.583,6.248,19.179
	c-1.021-2.92-2.189-5.788-3.555-8.563c-1.256-2.579-2.709-5.061-4.346-7.407c-1.632-2.348-3.445-4.568-5.504-6.52
	c3.462,4.496,6.016,9.527,8.016,14.732c1.999,5.212,3.435,10.612,4.555,16.073c0.586,2.957,1.078,5.932,1.489,8.92
	c-1.313-3.296-2.844-6.502-4.671-9.539c-3.005-5.105-6.809-9.701-11.054-13.758c-4.264-4.048-9.106-7.43-14.238-10.155
	c2.387,1.662,4.7,3.408,6.893,5.285c2.193,1.878,4.245,3.903,6.213,5.988c3.913,4.205,7.179,8.943,9.896,13.939
	c2.683,5.02,4.766,10.348,6.17,15.846c0.887,3.485,1.599,7.02,2.21,10.578c0.368,3.318-0.286,9.46,3.635,9.46
	C671.272,116.334,670.441,111.271,670.227,107.055z"/>
<g>
	<ellipse fill="#FFFFFF" cx="418.917" cy="104.444" rx="39.698" ry="28.469"/>
	<g>
		<circle fill="#977756" cx="418.993" cy="104.444" r="13.601"/>
		<circle fill="#050505" cx="418.992" cy="104.444" r="6.242"/>
	</g>
</g>
<g>
	<ellipse fill="#FFFFFF" cx="501.512" cy="104.444" rx="39.698" ry="28.469"/>
	<g>
		<circle fill="#977756" cx="501.588" cy="104.444" r="13.602"/>
		<circle fill="#050505" cx="501.587" cy="104.444" r="6.242"/>
	</g>
</g>
<path fill="#4F69C6" d="M642.562,391.305c0,0,25.355,7.582,47.833,0c0,0,9.67,38.945-20.127,38.945S641.256,408.296,642.562,391.305
	z"/>
<g>
	<path fill="#B7B7B7" d="M724.032,184.129c-0.895,0-1.743,0.184-2.533,0.48c-2.441-7.907-6.547-15.09-11.923-21.125
		c0.034-0.03,0.072-0.053,0.104-0.084c1.302-1.302,1.302-3.412,0-4.714s-3.41-1.302-4.712,0c-0.034,0.032-0.056,0.07-0.086,0.104
		c-9.31-8.293-21.343-13.587-34.574-14.352c0.001-0.035,0.011-0.068,0.011-0.104c0-1.841-1.492-3.333-3.333-3.333
		s-3.333,1.492-3.333,3.333c0,0.036,0.009,0.069,0.011,0.104c-13.231,0.765-25.264,6.059-34.573,14.352
		c-0.031-0.034-0.053-0.073-0.086-0.104c-1.302-1.302-3.411-1.302-4.713,0s-1.302,3.412,0,4.714
		c0.033,0.031,0.071,0.054,0.104,0.084c-5.375,6.035-9.482,13.219-11.923,21.125c-0.791-0.297-1.639-0.48-2.533-0.48
		c-4.006,0-7.253,3.248-7.253,7.253v19.996c0,4.006,3.247,7.253,7.253,7.253c0.894,0,1.742-0.184,2.533-0.48
		c2.441,7.906,6.547,15.09,11.923,21.125c-0.034,0.031-0.072,0.054-0.104,0.086c-1.302,1.302-1.302,3.412,0,4.714
		s3.411,1.302,4.713,0c0.033-0.032,0.055-0.071,0.086-0.104c9.31,8.295,21.342,13.588,34.573,14.352
		c-0.001,0.035-0.011,0.068-0.011,0.104c0,1.841,1.492,3.332,3.333,3.332s3.333-1.491,3.333-3.332c0-0.036-0.01-0.069-0.011-0.104
		c13.231-0.764,25.264-6.057,34.574-14.352c0.03,0.033,0.052,0.072,0.086,0.104c1.302,1.302,3.41,1.302,4.712,0s1.302-3.412,0-4.714
		c-0.032-0.032-0.07-0.055-0.104-0.086c5.376-6.033,9.482-13.218,11.923-21.125c0.791,0.296,1.639,0.48,2.533,0.48
		c4.006,0,7.253-3.248,7.253-7.253v-19.996C731.285,187.376,728.038,184.129,724.032,184.129z M666.986,244.312
		c-23.71,0-42.931-19.222-42.931-42.933c0-23.71,19.221-42.931,42.931-42.931c23.711,0,42.931,19.221,42.931,42.931
		S690.697,244.312,666.986,244.312z"/>
	<line fill="none" x1="608.667" y1="188.585" x2="608.667" y2="213.181"/>
	<line fill="none" x1="724" y1="188.585" x2="724" y2="213.181"/>
</g>
<g>
	<path fill="#B7B7B7" d="M548.007,85.937c-1.375,0-2.601,0.599-3.458,1.539c-6.674-17.533-23.65-30.029-43.495-30.029
		c-17.999,0-33.629,10.278-41.363,25.268c-7.734-14.989-23.368-25.268-41.363-25.268c-19.845,0-36.82,12.496-43.495,30.029
		c-0.858-0.939-2.083-1.539-3.458-1.539c-2.6,0-4.705,2.105-4.705,4.705v26.661c0,2.598,2.104,4.705,4.705,4.705
		c1.375,0,2.601-0.6,3.458-1.539c6.675,17.533,23.65,30.028,43.495,30.028c17.995,0,33.628-10.276,41.363-25.267
		c7.734,14.988,23.365,25.267,41.363,25.267c19.845,0,36.82-12.495,43.495-30.028c0.857,0.939,2.083,1.539,3.458,1.539
		c2.6,0,4.705-2.105,4.705-4.705V90.642C552.712,88.043,550.607,85.937,548.007,85.937z M418.328,139.52
		c-19.631,0-35.546-15.914-35.546-35.547s15.915-35.547,35.546-35.547c19.63,0,35.546,15.915,35.546,35.547
		C453.874,123.604,437.958,139.52,418.328,139.52z M501.054,139.52c-19.631,0-35.547-15.914-35.547-35.547
		s15.916-35.547,35.547-35.547c19.63,0,35.546,15.915,35.546,35.547C536.6,123.604,520.685,139.52,501.054,139.52z"/>
	<line fill="none" x1="372.414" y1="91.058" x2="372.414" y2="115.333"/>
	<line fill="none" x1="547.333" y1="91.058" x2="547.333" y2="115.333"/>
</g>
</svg>
