<?xml version="1.0" encoding="UTF-8" standalone="no"?>
<svg viewBox="0 0 111.71105 325.9509" xmlns="http://www.w3.org/2000/svg">
<g transform="translate(-16.22776,-26.0542)">
<path d="m101.69344,351.86695c-.08802-.088-.16004-2.0864-.16004-4.44091 0-3.86568.04367-4.32453.45009-4.73096 .24757-.24754.59864-.50093.78016-.56305 .22721-.07776.01215-.43252-.69014-1.13846-.98118-.98627-1.02021-1.0827-1.02021-2.51989 0-.82193-.0706-2.80762-.15692-4.41269l-.15689-2.91828h-.89073-.89071l-1.83003-4.8803c-1.77553-4.73497-2.66488-8.07647-2.90352-10.9091-1.28894-15.30004-1.86182-42.26595-1.13836-53.58482 .73566-11.51004.73134-11.00471.10773-12.60258-3.87192-9.92078-5.28972-13.37038-8.87959-21.60443-4.16524-9.55379-5.02485-11.27199-6.18426-12.3612-1.12732-1.05907-1.18611-.6292-.84373,6.16892 .41709,8.2814.19373,38.67593-.33926,46.16048-.32783,4.60387-.32897,5.88667-.01046,11.88243 .19638,3.69676.4076,7.13287.46941,7.63579s.28137,2.93343.48793,5.40111c.38232,4.56746.49707,5.18139 1.91523,10.24787 2.01034,7.18203 4.19217,16.23606 4.34014,18.01041 .17214,2.0639-.07891,4.54963-.90394,8.9506l-.50914,2.71604-1.4546,1.41898-1.45463,1.419-.09909,3.18079c-.06637,2.13001-.20704,3.34557-.42584,3.6795-.22769.3475-.26463.71531-.12183,1.21323 .1127.39299.22588,1.84548.25153,3.22774 .03792,2.04689.12737,2.60229.48196,2.99331 .23945.26405.55953.72096.7113,1.01539 .26376.51173.24134.52856-.51014.38232-.4323-.08411-.86537-.27096-.96237-.41523-.10771-.16021-.17778-.09675-.18005.16301-.00323.37635-.17658.40933-1.50397.28628-.82517-.0765-3.01262-.13053-4.861-.12009l-3.84079.02136c-5.01073.02465-6.34109-.02592-6.47724-.24624-.24379-.39445-.60233-.04223-.42876.42119 .13362.35667.10109.36898-.24069.0911-.25988-.2113-.65539-.26412-1.15519-.15436-.45969.10097-.70447.07706-.61947-.06046 .08135-.13164-.89171-.3396-2.31045-.49376-2.03113-.22073-2.52296-.35522-2.87108-.78506-.23105-.28529-.42009-.71561-.42009-.95625s-.34608-.99429-.76905-1.67474c-.68658-1.10448-.77027-1.43443-.78015-3.07656l-.01112-1.83942 1.42995-1.80037c.78647-.99021 2.05427-2.46464 2.81733-3.27653 1.60188-1.70435 1.72649-1.97419 2.22334-4.8146 .4848-2.7716.46728-3.9266-.118-7.77714-.73765-4.85277-1.04458-5.75093-2.53661-7.42306-.70264-.78749-1.4045-1.66897-1.55964-1.95888-.42619-.79631-.71994-7.89425-.64389-15.55816 .0647-6.52209-.22317-10.90227-1.12878-17.17528-.05812-.40254-.32815-3.04908-.60006-5.88121s-.54817-5.47336-.61395-5.86944-.21894-2.34048-.34043-4.32089c-.1434-2.33726-.42784-4.44305-.81065-6.00123-.78985-3.21512-2.80812-10.74188-2.93575-10.94838-.05605-.09069-1.52391-5.44201-3.26191-11.89179l-3.16001-11.72692-.03828-4.56093-.03829-4.56093-3.26405-.15351c-1.7952-.08445-3.36716-.21727-3.49321-.29519s-1.24229-.29668-2.48048-.48617c-2.42416-.37097-4.23678-1.05413-5.03542-1.89778-.27493-.29042-1.35124-1.79758-2.39181-3.34925-1.55577-2.31995-2.02661-3.25468-2.64989-5.26093-.67922-2.18624-.7454-2.66004-.63707-4.5603l.12091-2.12058h-1.03538-1.03535l-.13232-1.02022c-.07276-.56111-.29929-2.96461-.50341-5.34109s-.41518-4.64495-.46908-5.04104-.273-2.34047-.48696-4.32088-.42182-3.87079-.46192-4.20086c-.31541-2.5958-.40946-3.81294-.6215-8.04165-.13238-2.64054-.30699-5.79186-.38799-7.00293-.20416-3.05173-.24074-13.21869-.05125-14.24142 .0856-.46209.33506-2.4065.55435-4.32089s.44503-3.80478.50161-4.20086c.54056-3.78361 1.06181-18.01335 1.06684-29.1249 .00212-4.63839.35691-7.75435 1.90434-16.72449 .69444-4.02544.71549-4.09084 1.551-4.81755 1.19598-1.04024 4.72026-2.94202 8.78916-4.74283 9.84992-4.35935 20.96051-9.92211 22.03578-11.03268 .76487-.78999.79293-.88904.83717-2.9548 .04254-1.98714-.00888-2.24242-.7315-3.63104-.93756-1.80174-2.21736-5.24053-2.21736-5.95802 0-1.1535-.48459-1.97118-1.26011-2.12628-.41361-.08273-1.08505-.51398-1.49208-.95835-.96958-1.05856-1.81813-4.46185-1.81261-7.26995 .00348-1.76962.0592-2.0065.56549-2.40474 .52508-.41305.57258-.66363.73054-3.85477 .35575-7.18736.82222-9.28423 2.69059-12.09467 1.92414-2.89431 2.3545-3.26809 5.4891-4.76727 4.6349-2.21674 4.78297-2.25593 7.88114-2.08589 6.48667.35599 11.37019,2.08238 14.4419,5.10542 1.40201,1.37979 2.10577,2.694 3.23138,6.0345 .73496,2.18116.74526,2.27745.70785,6.62175-.03787,4.40081-.03684,4.41001.59775,5.34392 .71571,1.05324.77714,1.84263.39923,5.12979-.21288,1.85174-.33098,2.16743-1.37846,3.68477-1.74696,2.53059-2.00062,3.12065-2.21078,5.14292-.10687,1.02832-.38226,2.5065-.61199,3.28487-.63584,2.15453-.41948,3.43629.90802,5.37915 2.00568,2.93541 2.84957,3.41796 8.09061,4.62634 1.65034.38049 7.96964,2.0364 14.04289,3.67979 10.34599,2.79958 11.08012,3.03363 11.64238,3.71176 .76302.92021 2.74218,5.449 4.21003,9.63358 1.07374,3.06096 1.15435,3.46696 1.45367,7.3215 .29756,3.83218.57578,5.70181 1.76815,11.88244 .53488,2.77247 2.08971,11.96394 2.88309,17.0435 .27839,1.78236.77971,4.66413 1.11404,6.40392 .59969,3.12061.60663,3.29216.51407,12.72261l-.09381,9.55934-2.32389,13.64974c-1.27812,7.50734-2.32387,13.68622-2.32387,13.73082s-.60805.11352-1.35122.15311l-1.35121.07199 .00204,1.32027c.00111.72615.07972,2.77857.17468,4.56093 .16974,3.18566-.15219,7.01565-.84737,10.08207-.25363,1.11867.19984,4.09473 3.10898,20.40418 .52985,2.97061 1.1312,6.37331 1.3363,7.56155s.53464,3.02462.73231,4.08084c.35663,1.90546.63791,4.31294 1.55661,13.32273 .26251,2.57453.59825,5.59915.74607,6.72138 .40184,3.05047.59482,56.92584.21556,60.1746-.19679,1.6856-.57609,3.24416-1.22374,5.02831-.68863,1.89706-.93857,2.95846-.93857,3.98587 0,.77017-.28648,2.54364-.63663,3.941-.60289,2.40598-.67802,2.55802-1.41653,2.86658s-.76951.37186-.58643,1.18371c.10642.47182.48138,1.44627.83324,2.16544 .6037,1.23392 1.19778,1.85109 4.99727,5.19154 1.18057,1.0379 2.09016,3.44468 2.09016,5.5305 0,1.43746-.02269,1.48839-1.10608,2.48306-.73807.67761-1.40898,1.06393-2.01645,1.16107-1.86622.29841-3.44797,1.09073-4.15451,2.08106-.37164.52091-.86315.94709-1.09223.94709s-.54615.12963-.70459.28806c-.22404.22404-.28806.19737-.28806-.12003 0-.47794-.26662-.52553-.67213-.12002-.21729.21731-.28807.21876-.28807.00595s-.17158-.21688-.63341-.04131c-.34836.13246-.69043.1838-.76014.1141s.01728-.12675.19331-.12675 .26305-.05704.19333-.12674-.41178-.01837-.76016.11409c-.47068.17895-.63435.16525-.63709-.05332-.00235-.18884-.08826-.16525-.24005.06597s-.30349.27058-.41641.12003c-.24557-.32744-2.78126-.37784-2.97819-.0592-.10993.17785-.3821.16307-.89304-.04858-.54133-.22423-.92517-.23808-1.45717-.05265-.47299.16489-.77286.16986-.86893.0144s-.24751-.1537-.43958.00572c-.31734.26335-2.25799.22597-2.70808-.05219-.15217-.09405-.5345-.073-.84959.04681-.34872.13258-.73107.12927-.97717-.00845-.257-.14384-.56879-.13817-.85597.0155-.24844.13297-.5347.16456-.63613.07017s-.1306.12547-.06486.48855c.12764.70469.11561.74963-.13392.50009z"/>
</g>
</svg>
