<?xml version="1.0" encoding="UTF-8" standalone="no"?>
<!-- Created with Inkscape (http://www.inkscape.org/) -->

<svg
   xmlns:dc="http://purl.org/dc/elements/1.1/"
   xmlns:cc="http://creativecommons.org/ns#"
   xmlns:rdf="http://www.w3.org/1999/02/22-rdf-syntax-ns#"
   xmlns:svg="http://www.w3.org/2000/svg"
   xmlns="http://www.w3.org/2000/svg"
   xmlns:sodipodi="http://sodipodi.sourceforge.net/DTD/sodipodi-0.dtd"
   xmlns:inkscape="http://www.inkscape.org/namespaces/inkscape"
   id="svg3280"
   version="1.1"
   inkscape:version="0.48.2 r9819"
   width="915.88812"
   height="395.26581"
   xml:space="preserve"
   sodipodi:docname="t-internet_3.pdf"><metadata
     id="metadata3286"><rdf:RDF><cc:Work
         rdf:about=""><dc:format>image/svg+xml</dc:format><dc:type
           rdf:resource="http://purl.org/dc/dcmitype/StillImage" /><dc:title></dc:title></cc:Work></rdf:RDF></metadata><defs
     id="defs3284" /><sodipodi:namedview
     pagecolor="#ffffff"
     bordercolor="#666666"
     borderopacity="1"
     objecttolerance="10"
     gridtolerance="10"
     guidetolerance="10"
     inkscape:pageopacity="0"
     inkscape:pageshadow="2"
     inkscape:window-width="1920"
     inkscape:window-height="976"
     id="namedview3282"
     showgrid="false"
     showguides="true"
     inkscape:guide-bbox="true"
     fit-margin-top="0"
     fit-margin-left="0"
     fit-margin-right="0"
     fit-margin-bottom="0"
     inkscape:zoom="0.88438749"
     inkscape:cx="713.17674"
     inkscape:cy="169.9701"
     inkscape:window-x="-8"
     inkscape:window-y="-8"
     inkscape:window-maximized="1"
     inkscape:current-layer="g3288"><sodipodi:guide
       orientation="0,1"
       position="49.959793,-134.5564"
       id="guide3304" /></sodipodi:namedview><g
     id="g3288"
     inkscape:groupmode="layer"
     inkscape:label="t-internet"
     transform="matrix(1.25,0,0,-1.25,68.05141,744.09477)"><rect
       style="fill:#000000;fill-opacity:1;stroke:none"
       id="rect2994"
       width="732.71051"
       height="316.21265"
       x="-54.441128"
       y="-595.27582"
       transform="scale(1,-1)" /><path
       inkscape:connector-curvature="0"
       id="path3292"
       style="fill:#baff00;fill-opacity:1;fill-rule:nonzero;stroke:none"
       d="m 94.653524,377.96141 c -2.43,-0.003 -4.586,-0.429 -6.473,-1.281 -1.886,-0.855 -2.832,-2.047 -2.828,-3.57 -0.004,-1.531 0.965,-2.61 2.899,-3.238 1.929,-0.629 4.062,-0.946 6.402,-0.942 l 42.862996,0 c 2.336,-0.004 4.512,0.379 6.536,1.145 2.019,0.761 3.031,1.773 3.035,3.035 -0.004,1.613 -1.016,2.824 -3.035,3.637 -2.024,0.804 -4.2,1.211 -6.536,1.214 l -42.862996,0 z m 157.573996,-9.168 c 0,5.481 -0.652,10.016 -1.953,13.614 -1.305,3.593 -3.035,6.472 -5.191,8.629 -2.16,2.156 -4.676,3.66 -7.547,4.515 -2.879,0.852 -5.891,1.278 -9.031,1.282 -3.508,-0.004 -6.18,-0.274 -8.02,-0.809 -1.844,-0.543 -3.418,-1.106 -4.719,-1.688 -1.304,-0.586 -2.582,-1.144 -3.839,-1.683 -1.258,-0.539 -3.055,-0.809 -5.391,-0.809 -1.352,0 -2.344,0.09 -2.969,0.27 -0.633,0.179 -1.262,0.379 -1.887,0.605 -0.632,0.223 -1.441,0.426 -2.425,0.61 -0.993,0.175 -2.473,0.265 -4.446,0.269 -2.16,-0.004 -3.757,-1.328 -4.789,-3.976 -1.035,-2.653 -1.504,-5.821 -1.414,-9.504 l 0,-39.227 c 0,-2.875 0.539,-5.168 1.617,-6.875 1.079,-1.707 2.336,-2.558 3.778,-2.558 2.332,0 3.972,1.054 4.918,3.167 0.941,2.11 1.41,4.918 1.414,8.426 l 0,20.891 c -0.004,3.234 0.402,6.242 1.211,9.031 0.808,2.781 1.953,5.231 3.437,7.348 1.481,2.109 3.301,3.75 5.461,4.918 2.156,1.168 4.629,1.754 7.414,1.754 2.875,0 5.703,-0.317 8.492,-0.946 2.782,-0.629 5.254,-1.953 7.414,-3.976 2.153,-2.024 3.883,-4.969 5.188,-8.828 1.305,-3.868 1.957,-8.989 1.957,-15.368 l 0,-16.578 c 0,-6.562 1.84,-9.839 5.527,-9.839 1.164,0 2.129,0.402 2.895,1.21 0.762,0.809 1.348,1.844 1.754,3.102 0.402,1.258 0.695,2.672 0.875,4.246 0.179,1.57 0.269,3.121 0.269,4.652 l 0,24.125 z m 33.407,31.946 c -1.258,1.168 -2.18,2.515 -2.766,4.043 -0.586,1.527 -1.172,2.965 -1.75,4.312 -0.586,1.348 -1.281,2.469 -2.09,3.371 -0.809,0.899 -1.976,1.352 -3.504,1.352 -1.531,0 -2.676,-0.473 -3.437,-1.418 -0.766,-0.945 -1.418,-2.094 -1.953,-3.438 -0.543,-1.351 -1.106,-2.789 -1.688,-4.312 -0.586,-1.531 -1.418,-2.832 -2.492,-3.91 -1.352,-1.348 -2.856,-2.766 -4.516,-4.246 -1.664,-1.485 -2.496,-3.078 -2.492,-4.782 -0.004,-1.351 0.535,-2.543 1.617,-3.574 1.074,-1.039 2.289,-2.207 3.637,-3.504 1.348,-1.304 2.559,-2.875 3.641,-4.718 1.074,-1.844 1.613,-4.293 1.617,-7.344 l 0,-17.391 c -0.004,-3.238 0.246,-6.359 0.742,-9.367 0.492,-3.012 1.434,-5.711 2.828,-8.09 1.391,-2.383 3.301,-4.269 5.731,-5.66 2.425,-1.395 5.527,-2.086 9.3,-2.09 1.887,0.004 3.66,0.317 5.325,0.945 1.66,0.629 2.492,1.75 2.492,3.372 0,0.984 -0.293,1.793 -0.875,2.421 -0.586,0.629 -1.305,1.215 -2.157,1.754 -0.855,0.539 -1.8,1.098 -2.832,1.684 -1.035,0.582 -1.953,1.281 -2.761,2.094 -2.071,2.062 -3.532,4.129 -4.383,6.199 -0.852,2.066 -1.277,4.312 -1.277,6.738 l 0,17.524 c 0,3.5 0.761,6.195 2.289,8.086 1.527,1.882 3.191,3.41 4.988,4.582 1.797,1.164 3.457,2.152 4.984,2.964 1.528,0.805 2.293,1.887 2.293,3.239 0,1.078 -0.25,1.863 -0.742,2.359 -0.496,0.492 -1.191,0.984 -2.086,1.481 -0.902,0.492 -2.004,1.101 -3.305,1.82 -1.304,0.719 -2.761,1.887 -4.378,3.504 z m 79.855,-31.27 c -0.004,3.949 -0.746,7.567 -2.227,10.848 -1.484,3.277 -3.48,6.086 -5.996,8.426 -2.515,2.336 -5.414,4.156 -8.695,5.461 -3.281,1.3 -6.719,1.953 -10.312,1.953 -5.391,0 -10.29,-0.742 -14.692,-2.223 -4.406,-1.484 -8.203,-3.687 -11.39,-6.605 -3.192,-2.922 -5.641,-6.493 -7.348,-10.715 -1.707,-4.227 -2.559,-9.078 -2.559,-14.559 0,-4.312 0.942,-8.359 2.828,-12.133 1.887,-3.777 4.403,-7.054 7.551,-9.839 3.141,-2.786 6.735,-4.989 10.781,-6.606 4.039,-1.617 8.219,-2.422 12.539,-2.426 3.5,0.004 6.489,0.293 8.961,0.875 2.469,0.586 4.469,1.282 6,2.09 1.528,0.809 2.653,1.664 3.372,2.563 0.718,0.898 1.078,1.617 1.078,2.156 0,1.258 -0.227,2.199 -0.676,2.832 -0.449,0.625 -1.301,0.941 -2.559,0.945 -1.351,-0.004 -2.633,-0.23 -3.843,-0.676 -1.215,-0.453 -2.497,-0.925 -3.844,-1.418 -1.348,-0.496 -2.766,-0.964 -4.246,-1.414 -1.485,-0.449 -3.121,-0.675 -4.918,-0.671 -1.797,-0.004 -3.707,0.289 -5.731,0.875 -2.023,0.582 -3.89,1.414 -5.594,2.492 -1.71,1.078 -3.125,2.449 -4.246,4.113 -1.125,1.66 -1.687,3.57 -1.683,5.73 -0.004,2.157 0.515,3.93 1.551,5.321 1.031,1.39 2.355,2.488 3.976,3.301 1.613,0.804 3.367,1.367 5.258,1.687 1.887,0.313 3.684,0.473 5.391,0.473 2.605,0 4.894,-0.09 6.875,-0.27 1.972,-0.18 3.726,-0.359 5.253,-0.539 1.528,-0.18 2.918,-0.359 4.18,-0.539 1.258,-0.18 2.52,-0.269 3.778,-0.269 3.593,0 6.355,0.808 8.289,2.425 1.929,1.617 2.894,3.727 2.898,6.336 z m -47.719,7.817 c -0.004,1.793 0.426,3.523 1.282,5.187 0.851,1.66 1.972,3.121 3.371,4.383 1.39,1.254 3.031,2.266 4.918,3.031 1.886,0.766 3.863,1.149 5.933,1.149 2.153,0 4.289,-0.317 6.403,-0.946 2.109,-0.629 3.996,-1.55 5.66,-2.761 1.66,-1.219 3.027,-2.68 4.109,-4.383 1.078,-1.711 1.621,-3.688 1.621,-5.93 0,-1.891 -0.43,-3.508 -1.281,-4.851 -0.859,-1.352 -2.027,-2.454 -3.508,-3.305 -1.484,-0.856 -3.215,-1.485 -5.187,-1.887 -1.981,-0.406 -4.047,-0.605 -6.2,-0.605 -1.711,0 -3.55,0.156 -5.527,0.472 -1.977,0.313 -3.82,0.875 -5.527,1.684 -1.707,0.809 -3.145,1.93 -4.313,3.371 -1.172,1.434 -1.758,3.23 -1.754,5.391 z m 88.196,18.199 c -1.442,-0.004 -2.633,-0.184 -3.575,-0.539 -0.945,-0.363 -1.89,-0.746 -2.832,-1.149 -0.945,-0.406 -2,-0.785 -3.168,-1.144 -1.168,-0.36 -2.648,-0.539 -4.445,-0.539 -2.07,0 -3.824,0.269 -5.258,0.808 -1.441,0.539 -3.195,0.809 -5.258,0.809 -1.89,0 -3.371,-0.383 -4.449,-1.148 -1.078,-0.766 -1.887,-1.735 -2.426,-2.899 -0.539,-1.172 -0.878,-2.449 -1.011,-3.84 -0.137,-1.39 -0.203,-2.672 -0.2,-3.84 l 0,-40.3 c -0.003,-1.172 0.11,-2.34 0.336,-3.508 0.223,-1.168 0.582,-2.246 1.079,-3.235 0.492,-0.988 1.121,-1.796 1.886,-2.425 0.762,-0.629 1.684,-0.946 2.766,-0.942 0.984,-0.004 1.836,0.313 2.558,0.942 0.715,0.629 1.325,1.48 1.821,2.562 0.492,1.074 0.851,2.309 1.078,3.703 0.223,1.391 0.332,2.809 0.336,4.25 l 0,16.578 c -0.004,5.84 0.648,10.219 1.953,13.141 1.301,2.918 2.719,5.098 4.25,6.539 1.797,1.793 3.57,3.141 5.324,4.043 1.75,0.895 4.063,1.66 6.942,2.293 2.242,0.445 4.199,1.004 5.863,1.684 1.66,0.671 2.488,2.089 2.492,4.246 -0.004,1.078 -0.496,1.996 -1.484,2.761 -0.989,0.762 -2.516,1.145 -4.578,1.149 z m 75.3,-26.692 c 0,5.481 -0.652,10.016 -1.953,13.614 -1.304,3.593 -3.035,6.472 -5.191,8.629 -2.16,2.156 -4.676,3.66 -7.547,4.515 -2.879,0.852 -5.891,1.278 -9.031,1.282 -3.508,-0.004 -6.18,-0.274 -8.02,-0.809 -1.844,-0.543 -3.418,-1.106 -4.719,-1.688 -1.304,-0.586 -2.582,-1.144 -3.839,-1.683 -1.258,-0.539 -3.055,-0.809 -5.391,-0.809 -1.352,0 -2.344,0.09 -2.969,0.27 -0.633,0.179 -1.262,0.379 -1.887,0.605 -0.632,0.223 -1.441,0.426 -2.425,0.61 -0.992,0.175 -2.473,0.265 -4.446,0.269 -2.16,-0.004 -3.757,-1.328 -4.789,-3.976 -1.035,-2.653 -1.504,-5.821 -1.414,-9.504 l 0,-39.227 c 0,-2.875 0.539,-5.168 1.617,-6.875 1.079,-1.707 2.336,-2.558 3.778,-2.558 2.332,0 3.972,1.054 4.918,3.167 0.941,2.11 1.41,4.918 1.414,8.426 l 0,20.891 c -0.004,3.234 0.402,6.242 1.211,9.031 0.808,2.781 1.953,5.231 3.437,7.348 1.481,2.109 3.301,3.75 5.461,4.918 2.156,1.168 4.629,1.754 7.414,1.754 2.875,0 5.703,-0.317 8.492,-0.946 2.782,-0.629 5.254,-1.953 7.415,-3.976 2.152,-2.024 3.882,-4.969 5.187,-8.828 1.305,-3.868 1.957,-8.989 1.957,-15.368 l 0,-16.578 c 0,-6.562 1.84,-9.839 5.527,-9.839 1.164,0 2.129,0.402 2.895,1.21 0.762,0.809 1.348,1.844 1.754,3.102 0.402,1.258 0.695,2.672 0.875,4.246 0.18,1.57 0.269,3.121 0.269,4.652 l 0,24.125 z m 70.879,0.676 c -0.004,3.949 -0.746,7.567 -2.226,10.848 -1.485,3.277 -3.481,6.086 -5.996,8.426 -2.516,2.336 -5.414,4.156 -8.696,5.461 -3.281,1.3 -6.718,1.953 -10.312,1.953 -5.391,0 -10.289,-0.742 -14.692,-2.223 -4.406,-1.484 -8.203,-3.687 -11.39,-6.605 -3.192,-2.922 -5.641,-6.493 -7.348,-10.715 -1.707,-4.227 -2.558,-9.078 -2.558,-14.559 0,-4.312 0.941,-8.359 2.828,-12.133 1.886,-3.777 4.402,-7.054 7.55,-9.839 3.141,-2.786 6.735,-4.989 10.782,-6.606 4.039,-1.617 8.218,-2.422 12.539,-2.426 3.5,0.004 6.488,0.293 8.961,0.875 2.468,0.586 4.468,1.282 6,2.09 1.527,0.809 2.652,1.664 3.371,2.563 0.719,0.898 1.078,1.617 1.078,2.156 0,1.258 -0.227,2.199 -0.676,2.832 -0.449,0.625 -1.301,0.941 -2.558,0.945 -1.352,-0.004 -2.633,-0.23 -3.844,-0.676 -1.215,-0.453 -2.496,-0.925 -3.844,-1.418 -1.348,-0.496 -2.766,-0.964 -4.246,-1.414 -1.484,-0.449 -3.121,-0.675 -4.918,-0.671 -1.797,-0.004 -3.707,0.289 -5.731,0.875 -2.023,0.582 -3.89,1.414 -5.593,2.492 -1.711,1.078 -3.125,2.449 -4.246,4.113 -1.125,1.66 -1.688,3.57 -1.684,5.73 -0.004,2.157 0.516,3.93 1.551,5.321 1.031,1.39 2.355,2.488 3.976,3.301 1.614,0.804 3.368,1.367 5.258,1.687 1.887,0.313 3.684,0.473 5.391,0.473 2.605,0 4.894,-0.09 6.875,-0.27 1.972,-0.18 3.726,-0.359 5.254,-0.539 1.527,-0.18 2.918,-0.359 4.179,-0.539 1.258,-0.18 2.52,-0.269 3.778,-0.269 3.594,0 6.355,0.808 8.289,2.425 1.93,1.617 2.894,3.727 2.898,6.336 z m -47.718,7.817 c -0.004,1.793 0.425,3.523 1.281,5.187 0.851,1.66 1.972,3.121 3.371,4.383 1.39,1.254 3.031,2.266 4.918,3.031 1.887,0.766 3.863,1.149 5.933,1.149 2.153,0 4.289,-0.317 6.403,-0.946 2.109,-0.629 3.996,-1.55 5.66,-2.761 1.66,-1.219 3.027,-2.68 4.109,-4.383 1.078,-1.711 1.621,-3.688 1.621,-5.93 0,-1.891 -0.429,-3.508 -1.281,-4.851 -0.859,-1.352 -2.027,-2.454 -3.508,-3.305 -1.484,-0.856 -3.215,-1.485 -5.187,-1.887 -1.981,-0.406 -4.047,-0.605 -6.199,-0.605 -1.711,0 -3.551,0.156 -5.528,0.472 -1.976,0.313 -3.82,0.875 -5.527,1.684 -1.707,0.809 -3.145,1.93 -4.313,3.371 -1.171,1.434 -1.757,3.23 -1.753,5.391 z m 76.062,23.453 c -1.258,1.168 -2.18,2.515 -2.766,4.043 -0.586,1.527 -1.171,2.965 -1.75,4.312 -0.586,1.348 -1.281,2.469 -2.089,3.371 -0.809,0.899 -1.977,1.352 -3.504,1.352 -1.532,0 -2.676,-0.473 -3.438,-1.418 -0.765,-0.945 -1.418,-2.094 -1.953,-3.438 -0.543,-1.351 -1.105,-2.789 -1.687,-4.312 -0.586,-1.531 -1.418,-2.832 -2.493,-3.91 -1.351,-1.348 -2.855,-2.766 -4.515,-4.246 -1.664,-1.485 -2.496,-3.078 -2.492,-4.782 -0.004,-1.351 0.535,-2.543 1.617,-3.574 1.074,-1.039 2.289,-2.207 3.636,-3.504 1.348,-1.304 2.559,-2.875 3.641,-4.718 1.074,-1.844 1.613,-4.293 1.617,-7.344 l 0,-17.391 c -0.004,-3.238 0.246,-6.359 0.742,-9.367 0.493,-3.012 1.434,-5.711 2.829,-8.09 1.39,-2.383 3.3,-4.269 5.73,-5.66 2.426,-1.395 5.527,-2.086 9.301,-2.09 1.887,0.004 3.66,0.317 5.324,0.945 1.66,0.629 2.492,1.75 2.492,3.372 0,0.984 -0.293,1.793 -0.875,2.421 -0.586,0.629 -1.304,1.215 -2.156,1.754 -0.856,0.539 -1.801,1.098 -2.832,1.684 -1.035,0.582 -1.953,1.281 -2.762,2.094 -2.07,2.062 -3.531,4.129 -4.383,6.199 -0.851,2.066 -1.277,4.312 -1.277,6.738 l 0,17.524 c 0,3.5 0.762,6.195 2.289,8.086 1.527,1.882 3.192,3.41 4.988,4.582 1.797,1.164 3.457,2.152 4.985,2.964 1.527,0.805 2.293,1.887 2.293,3.239 0,1.078 -0.25,1.863 -0.742,2.359 -0.497,0.492 -1.192,0.984 -2.086,1.481 -0.903,0.492 -2.004,1.101 -3.305,1.82 -1.305,0.719 -2.762,1.887 -4.379,3.504 z" /><path
       inkscape:connector-curvature="0"
       id="path3294"
       style="fill:#baff00;fill-opacity:1;fill-rule:nonzero;stroke:none"
       d="m 102.80152,440.42641 c -0.004,2.297 -1.672,3.856 -5.007996,4.676 -3.336,0.82 -8.508,1.231 -15.508004,1.231 l -42.504,0 c -4.054,0 -7.363,-0.11 -9.929,-0.329 -2.575,-0.218 -4.571,-0.546 -5.993,-0.984 -1.422,-0.437 -2.406,-1.039 -2.953,-1.805 -0.547,-0.765 -0.82,-1.695 -0.82,-2.789 0,-2.187 1.23,-3.859 3.691,-5.008 2.461,-1.152 5.825,-1.726 10.094,-1.722 1.746,-0.004 3.77,-0.168 6.07,-0.492 2.297,-0.332 4.43,-1.098 6.403,-2.297 1.965,-1.207 3.633,-2.985 5.004,-5.336 1.367,-2.356 2.054,-5.5 2.054,-9.434 l 0,-71.39 c 0,-1.426 0.137,-3.012 0.41,-4.758 0.274,-1.754 0.711,-3.367 1.313,-4.844 0.602,-1.477 1.422,-2.707 2.461,-3.691 1.039,-0.985 2.379,-1.477 4.019,-1.477 1.532,0 2.817,0.438 3.86,1.313 1.035,0.875 1.855,2.023 2.461,3.445 0.597,1.422 1.008,3.008 1.23,4.762 0.215,1.746 0.324,3.496 0.328,5.25 l 0,71.39 c -0.004,3.934 0.516,7.051 1.559,9.352 1.035,2.297 2.43,4.047 4.184,5.254 1.75,1.199 3.828,1.965 6.238,2.297 2.402004,0.324 4.922004,0.488 7.551004,0.492 1.312,-0.004 2.761,0.078 4.347,0.246 1.586,0.16 3.09,0.488 4.512,0.984 1.422,0.492 2.597996,1.18 3.526996,2.055 0.93,0.875 1.395,2.078 1.399,3.609 z" /><path
       inkscape:connector-curvature="0"
       id="path3296"
       style="fill:#ffffff;fill-opacity:1;fill-rule:nonzero;stroke:none"
       d="m 216.73862,509.99426 c -1.34621,-0.006 -2.53718,-0.23077 -3.56743,-0.68684 -1.04125,-0.46155 -1.91628,-1.06735 -2.63472,-1.80775 -0.72529,-0.7514 -1.28301,-1.62643 -1.66351,-2.63471 -0.38738,-1.00828 -0.5742,-2.09348 -0.5742,-3.24049 0,-2.36135 0.72943,-4.3312 2.19926,-5.91916 1.46021,-1.58798 3.54132,-2.38195 6.2406,-2.38195 2.68828,0 4.77076,0.79397 6.2406,2.38195 1.4712,1.58796 2.20611,3.55781 2.20611,5.91916 0,1.14701 -0.19368,2.23221 -0.57968,3.24049 -0.38601,1.00828 -0.9396,1.88331 -1.65803,2.63471 -0.7253,0.7404 -1.60445,1.3462 -2.6347,1.80775 -1.03575,0.45607 -2.22673,0.68134 -3.5743,0.68684 z m -21.14085,33.04922 13.13508,0 0,-26.48581 c 1.39565,1.63605 3.11273,2.84901 5.15676,3.64298 2.04403,0.78849 4.1485,1.18549 6.31615,1.19098 2.73636,-0.006 5.25294,-0.53161 7.53873,-1.58797 2.2858,-1.05772 4.23367,-2.49047 5.8436,-4.29272 1.60995,-1.80776 2.87099,-3.90124 3.7886,-6.2777 0.91212,-2.38332 1.36818,-4.89439 1.37367,-7.54009 -0.006,-2.69378 -0.46155,-5.23095 -1.37367,-7.61427 -0.91761,-2.38196 -2.19513,-4.47407 -3.82568,-6.2777 -1.64292,-1.80225 -3.61139,-3.23499 -5.91916,-4.29272 -2.30778,-1.05636 -4.83533,-1.58248 -7.57169,-1.58797 -2.16766,0.006 -4.27076,0.43407 -6.31478,1.29812 -2.0454,0.86404 -3.66496,2.21024 -4.86692,4.04547 l -0.14561,0 0,-4.11553 -13.13508,0 0,59.89493 z m 87.65139,-43.58804 -27.6397,0 c -0.006,-2.69378 0.68134,-4.73781 2.05502,-6.13208 1.37367,-1.39566 3.42869,-2.09349 6.17054,-2.09349 1.39016,0 2.60312,0.25276 3.64436,0.7569 1.03026,0.50414 1.90941,1.37917 2.63471,2.63471 l 12.63092,0 c -0.5316,-2.16766 -1.41075,-4.05647 -2.6347,-5.66641 -1.22806,-1.61544 -2.69926,-2.93554 -4.40537,-3.96579 -1.7116,-1.03575 -3.57293,-1.80226 -5.59085,-2.30778 -2.02342,-0.50413 -4.08943,-0.75552 -6.20352,-0.76101 -3.07977,0.006 -5.93427,0.43407 -8.55249,1.29812 -2.62921,0.86404 -4.8889,2.12507 -6.7832,3.78859 -1.90528,1.65253 -3.3971,3.71304 -4.47543,6.17054 -1.08383,2.45201 -1.62506,5.26392 -1.61956,8.44673 -0.006,3.06878 0.49864,5.83811 1.51241,8.29561 1.00966,2.45201 2.42042,4.51801 4.22268,6.20214 1.80363,1.68001 3.95481,2.97813 6.45626,3.89574 2.50009,0.91212 5.26393,1.36818 8.30112,1.37367 3.21852,-0.006 6.084,-0.48215 8.58546,-1.44373 2.50009,-0.96569 4.61417,-2.33937 6.35324,-4.11553 1.7267,-1.78165 3.05231,-3.93282 3.96443,-6.45489 0.91212,-2.52756 1.36817,-5.37656 1.37367,-8.54837 l 0,-1.37367 z m -12.19685,7.57718 c -0.34342,1.77616 -1.21708,3.19792 -2.63471,4.25564 -1.41626,1.05636 -3.01521,1.58248 -4.79687,1.58796 -1.92589,-0.006 -3.61138,-0.49863 -5.05375,-1.48082 -1.44372,-0.98767 -2.35584,-2.44239 -2.73773,-4.36278 l 15.22306,0 z" /><path
       inkscape:connector-curvature="0"
       id="path3298"
       style="fill:#0088ff;fill-opacity:1;fill-rule:nonzero;stroke:none"
       d="m 177.82518,424.29075 c -0.006,1.94237 -0.12363,4.17459 -0.36402,6.69116 -0.24727,2.51107 -0.77887,4.89852 -1.58385,7.17333 -0.81596,2.26518 -1.9094,4.17459 -3.28308,5.71997 -1.38466,1.54127 -3.2089,2.30778 -5.47409,2.31327 -2.11409,-0.006 -3.8147,-0.772 -5.11281,-2.31327 -1.2995,-1.54538 -2.31327,-3.45479 -3.0372,-5.71997 -0.73628,-2.27481 -1.22394,-4.66226 -1.46022,-7.17333 -0.24726,-2.51657 -0.36539,-4.74879 -0.36539,-6.69116 l 0,-74.93528 c 0,-1.62643 0.11813,-3.53035 0.36539,-5.71998 0.23628,-2.18964 0.72394,-4.26114 1.46022,-6.20351 0.72393,-1.95337 1.7377,-3.61689 3.0372,-4.99056 1.29811,-1.38329 2.99872,-2.07013 5.11281,-2.06601 2.10309,-0.004 3.84766,0.64426 5.22683,1.94375 1.37917,1.29812 2.47398,2.91906 3.28857,4.86693 0.80497,1.94649 1.37368,4.01799 1.70199,6.20763 0.32144,2.18964 0.48215,4.1746 0.48765,5.96175 l 0,74.93528 z m -10.70504,57.41956 c 2.75284,-0.004 5.02215,0.88603 6.8093,2.67317 1.78166,1.78166 2.6773,3.80921 2.6773,6.084 0,2.27069 -0.81459,4.3367 -2.43554,6.20352 -1.62643,1.8627 -3.97677,2.79542 -7.05106,2.80092 -3.09076,-0.006 -5.40266,-0.93822 -6.93843,-2.80092 -1.54538,-1.86682 -2.31189,-3.93283 -2.30639,-6.20352 -0.006,-2.27479 0.72392,-4.30234 2.18826,-6.084 1.45472,-1.78714 3.80507,-2.67728 7.05656,-2.67317 z" /><rect
       style="fill:#ffffff;fill-opacity:1;stroke:none"
       id="rect3308"
       width="384.58069"
       height="48.77219"
       x="63.163982"
       y="-83.01989"
       transform="matrix(0.8,0,0,-0.8,-34.540325,595.60657)" /></g></svg>