<?xml version="1.0" encoding="UTF-8" standalone="no"?>
<!-- Created with Inkscape (http://www.inkscape.org/) -->

<svg
   xmlns:dc="http://purl.org/dc/elements/1.1/"
   xmlns:cc="http://creativecommons.org/ns#"
   xmlns:rdf="http://www.w3.org/1999/02/22-rdf-syntax-ns#"
   xmlns:svg="http://www.w3.org/2000/svg"
   xmlns="http://www.w3.org/2000/svg"
   xmlns:sodipodi="http://sodipodi.sourceforge.net/DTD/sodipodi-0.dtd"
   xmlns:inkscape="http://www.inkscape.org/namespaces/inkscape"
   width="1477.053"
   height="474.39764"
   id="svg2"
   version="1.1"
   inkscape:version="0.48.5 r10040"
   sodipodi:docname="tea internet.svg"
   inkscape:export-filename="C:\xampp\htdocs\oefeningen\showcase\images\logo_tinternet.png"
   inkscape:export-xdpi="90.000008"
   inkscape:export-ydpi="90.000008">
  <defs
     id="defs4" />
  <sodipodi:namedview
     id="base"
     pagecolor="#ffffff"
     bordercolor="#666666"
     borderopacity="1.0"
     inkscape:pageopacity="0.0"
     inkscape:pageshadow="2"
     inkscape:zoom="0.35168594"
     inkscape:cx="1023.3919"
     inkscape:cy="-407.19773"
     inkscape:document-units="px"
     inkscape:current-layer="layer1"
     showgrid="false"
     showguides="true"
     inkscape:guide-bbox="true"
     fit-margin-top="0"
     fit-margin-left="0"
     fit-margin-right="0"
     fit-margin-bottom="0"
     inkscape:window-width="1280"
     inkscape:window-height="961"
     inkscape:window-x="1912"
     inkscape:window-y="-8"
     inkscape:window-maximized="1">
    <sodipodi:guide
       orientation="1,0"
       position="1205.0389,177.72273"
       id="guide3964" />
    <sodipodi:guide
       orientation="1,0"
       position="1363.2833,177.26538"
       id="guide3966" />
    <sodipodi:guide
       orientation="1,0"
       position="750.34589,182.398"
       id="guide3972" />
    <sodipodi:guide
       orientation="1,0"
       position="910.10445,218.61857"
       id="guide3974" />
  </sodipodi:namedview>
  <metadata
     id="metadata7">
    <rdf:RDF>
      <cc:Work
         rdf:about="">
        <dc:format>image/svg+xml</dc:format>
        <dc:type
           rdf:resource="http://purl.org/dc/dcmitype/StillImage" />
        <dc:title></dc:title>
      </cc:Work>
    </rdf:RDF>
  </metadata>
  <g
     inkscape:label="Layer 1"
     inkscape:groupmode="layer"
     id="layer1"
     transform="translate(406.57204,-566.26616)">
    <flowRoot
       xml:space="preserve"
       id="flowRoot2985"
       style="font-size:40px;font-style:normal;font-weight:normal;line-height:125%;letter-spacing:0px;word-spacing:0px;fill:#2c5817;fill-opacity:0.5098038;stroke:none;font-family:Sans"
       transform="matrix(5.6328964,0,0,5.1440316,-1076.0769,-1752.0221)"><flowRegion
         id="flowRegion2987"><rect
           id="rect2989"
           width="337.14285"
           height="171.42857"
           x="188.57143"
           y="355.21933"
           style="fill:#2c5817;fill-opacity:0.5098038" /></flowRegion><flowPara
         id="flowPara2991"
         style="font-style:normal;font-variant:normal;font-weight:normal;font-stretch:normal;fill:#2c5817;fill-opacity:0.5098038;font-family:Bowlby One;-inkscape-font-specification:Bowlby One">internet</flowPara></flowRoot>    <rect
       style="fill:#ffffff;fill-opacity:1;stroke:none"
       id="rect3773"
       width="110.08681"
       height="182.10622"
       x="232.55969"
       y="78.194641" />
    <flowRoot
       xml:space="preserve"
       id="flowRoot3765"
       style="font-size:40px;font-style:normal;font-weight:normal;line-height:125%;letter-spacing:0px;word-spacing:0px;fill:#2c5817;fill-opacity:0.5098038;stroke:none;font-family:Sans"
       transform="matrix(8.5927434,0,0,8.5927434,-381.13385,-6288.1326)"><flowRegion
         id="flowRegion3767"><rect
           id="rect3769"
           width="260.61935"
           height="141.42136"
           x="64.649765"
           y="726.08289"
           style="fill:#2c5817;fill-opacity:0.5098038" /></flowRegion><flowPara
         id="flowPara3771"
         style="font-style:normal;font-variant:normal;font-weight:normal;font-stretch:normal;fill:#2c5817;fill-opacity:0.5098038;font-family:Bowlby One;-inkscape-font-specification:Bowlby One">T</flowPara></flowRoot>    <rect
       style="fill:#ffffff;fill-opacity:1;stroke:none"
       id="rect3812"
       width="79.561844"
       height="85.924004"
       x="-197.07524"
       y="159.83817" />
    <path
       id="path3785"
       d="m -106.07803,23.548632 c -0.10074,-1.02653 -0.17644,-1.90015 -0.17644,-2.62154 0,-3.72321 0.60964,-3.74216 2.95367,-3.74216 h 13.9375 c -1.347723,-2.27858 -2.123619,-4.63517 -2.123619,-7.02858 0,-7.19971 10.57777,-10.71401005 10.57777,-16.71686 0,-2.22157 -0.942148,-4.04622 -1.71804,-6.62967 4.891863,1.32985 8.750143,6.3637 8.750143,11.70191 0,9.17496 -10.393112,9.25094 -10.393112,16.10872 0,0.85543 0.259475,1.61495 0.387945,2.56371 h 10.319389 c -0.151167,-0.57028 -0.25191,-1.17689 -0.25191,-1.76532 0,-4.33111 7.218021,-6.43964 7.218021,-10.03017 0,-1.3298 -0.176344,-2.43152 -0.58948,-3.98919 2.380572,0.9695 5.224402,3.79944 5.224402,6.99078 0,5.07198 -5.888939,5.56578 -6.79356,8.79522 h 18.608198 c 2.34529,0 2.953659,0.0183 2.953659,3.74212 0,3.72353 -1.420776,11.644911 -5.224389,21.086101 -3.802861,9.4412 -8.196442,13.60124 -11.297718,16.37468 l -0.01609,-0.0261 c -0.942144,0.87358 -2.179033,1.38684 -3.544394,1.38684 h -18.903432 c -1.365359,0 -2.60301,-0.51326 -3.544394,-1.38684 l -0.0165,0.0261 c -1.662603,-1.48277 -3.692003,-3.38131 -5.796487,-6.24965 -0.866559,0.38106 -1.808718,0.7025 -2.842795,0.94878 -1.551781,0.38106 -3.101287,0.5703 -4.578257,0.5703 -4.43037,0 -8.41786,-1.74719 -11.22391,-4.9009 -2.47377,-2.77347 -3.89506,-6.5348 -3.89506,-10.29616 0,-7.389441 5.16874,-13.563351 11.98066,-14.912121 z m 3.13831,24.087381 c 1.58705,0 2.87959,-0.2333 4.079703,-0.79841 -0.738101,-1.51907 -1.458553,-3.02021 -2.158883,-4.7679 -1.86415,-4.63519 -3.15669,-8.92847 -3.9875,-12.499811 -4.06132,0.81658 -7.14422,4.521381 -7.14422,8.947371 0,4.31222 3.17536,9.11822 9.2119,9.11822 z"
       inkscape:connector-curvature="0"
       style="fill:#2c5817;fill-opacity:0.5098038" />
    <path
       id="path3841"
       style="fill:#333333;fill-opacity:0.5098038;fill-rule:nonzero;stroke:none"
       d="m -63.994759,1015.2011 0.0786,0.6636 0.08226,11.0181 c -0.0037,2.0134 -0.111506,4.4127 -0.325377,7.2012 -0.213872,2.7923 -0.403067,4.2345 -0.560271,4.3305 l -1.449576,0.1498 -29.279418,0 -3.38082,0.2935 c -8.36568,-0.01 -13.46021,-0.1006 -15.28452,-0.2935 l 0,-0.5136 -0.0786,-1.3966 0,-3.3058 c -0.004,-9.6462 0.15721,-17.6545 0.48167,-24.024 l 0.88565,-56.56365 0,-2.20635 6.27266,-0.0713 1.36732,0.0713 2.33522,0 2.00985,0.0749 1.046509,-0.0749 5.790991,0 1.206456,-0.0713 27.434088,0.29339 c 0.210216,-0.0466 0.371077,-0.0722 0.481669,-0.0722 0.10328,0 0.157205,0.14715 0.160861,0.43963 l 0.0786,6.98008 c 0.05301,4.65125 0.160861,10.88187 0.320808,18.69367 0.160861,7.81181 0.239463,13.335 0.243119,16.56593 l -0.0786,9.18276 0,3.8945 0.239464,3.8917 0,2.2776 c -0.0037,0.054 -0.02925,0.1536 -0.0786,0.2971 l 0,2.274 z m 31.853188,-64.57185 21.557183,-0.0749 c 0.267797,1.02823 0.7503791,2.64598 1.4495754,4.84868 0.6964544,2.20635 1.3673173,4.40905 2.0098467,6.61174 l 1.5281781,5.50949 c 2.1423742,-4.94099 3.4566805,-7.68294 3.942005,-8.22584 l 1.28871481,-1.47151 C 5.0501901,950.87602 13.361944,947.40198 24.571935,947.39832 c 5.305666,0.004 10.360901,1.46054 15.162963,4.36975 4.798406,2.91743 8.536593,6.71228 11.220959,11.38639 2.677968,4.6805 4.020607,9.61418 4.024263,14.80194 -0.0037,0.59226 -0.08591,1.05656 -0.243119,1.39565 l 0,45.18175 0.08226,14.0305 -47.0591118,0 -0.1608609,-36.7301 0.3208077,-7.49376 c -0.00366,-7.49099 -2.1743635,-11.23558 -6.5157786,-11.23923 -4.6695347,0.004 -7.0047591,3.55173 -7.0011032,10.64971 -0.00366,1.57114 0.025591,2.64964 0.082258,3.23093 l 0,1.10318 0.078602,1.24941 0,39.15496 -23.9700951,0.075 -24.053267,0 -0.0786,-44.07762 0,-43.93238 z m 298.283551,-0.0749 21.39998,-0.0713 21.39632,0 1.7713,9.84359 c 1.23113,6.90788 1.95592,10.8252 2.17071,11.75289 l 2.81689,0 c 1.98426,-8.37207 5.79099,-14.32392 11.42112,-17.85098 l 3.21996,-1.68904 c 0.1572,-0.29247 1.12146,-0.83172 2.8955,-1.61683 l -0.32081,0.0749 1.84898,-0.66081 c 5.2554,-1.91022 9.78601,-2.88818 13.59549,-2.93845 0.80339,0.004 1.33898,0.0503 1.60678,0.14624 l 2.97775,0 0,40.99027 c -1.12877,-0.24312 -2.89915,-0.36377 -5.30932,-0.36742 -2.41748,0.004 -4.89803,0.32081 -7.44438,0.95694 -2.5491,0.63521 -4.69056,1.45597 -6.43352,2.45952 -1.74205,1.00721 -3.25927,2.29227 -4.54432,3.85609 -3.97034,4.85144 -5.95186,12.12394 -5.95186,21.81764 l 0.16087,7.715 0,13.5168 -28.63689,0.075 -28.55829,0 -0.0823,-43.85644 z m 117.45036,0.0749 21.55719,-0.0749 c 0.26779,1.02823 0.74946,2.64598 1.44957,4.84868 0.69554,2.20635 1.36732,4.40905 2.00985,6.61174 l 1.52818,5.50949 c 2.14146,-4.94099 3.45576,-7.68294 3.94109,-8.22584 l 1.28871,-1.47151 c 5.41626,-6.95084 13.72801,-10.42488 24.93892,-10.42854 5.30475,0.004 10.35999,1.46054 15.16205,4.36975 4.7984,2.91743 8.53659,6.71228 11.22187,11.38639 2.67705,4.6805 4.01969,9.61418 4.02335,14.80194 -0.004,0.59226 -0.0859,1.05656 -0.24312,1.39565 l 0,45.18175 0.0823,14.0305 -47.05911,0 -0.16086,-36.7301 0.32172,-7.49376 c -0.004,-7.49099 -2.17437,-11.23558 -6.51578,-11.23923 -4.67045,0.004 -7.00476,3.55173 -7.0011,10.64971 -0.004,1.57114 0.0246,2.64964 0.0822,3.23093 l 0,1.10318 0.0777,1.24941 0,39.15496 -23.97009,0.075 -24.05236,0 -0.0786,-44.07762 0,-43.93238 z m 274.22663,51.27625 -0.0786,1.1032 c 0,1.7173 0.0643,2.9777 0.2002,3.7848 0.13527,0.8097 0.68549,1.763 1.64882,2.8625 0.96422,1.1032 4.09918,1.6571 9.41124,1.6534 l 2.1744,0.071 c 0.7997,0 1.52452,-0.071 2.17067,-0.2175 l 0.0823,27.4012 -44.00363,0 -2.73464,0.1462 -0.88473,0 c -1.98883,0 -4.15958,-0.5886 -6.51948,-1.763 -2.3599,-1.1745 -4.11658,-2.2137 -5.26637,-3.1204 -1.15344,-0.9039 -2.1314,-2.0674 -2.93476,-3.4923 -1.50258,-2.6414 -2.40289,-5.2481 -2.69537,-7.8219 -0.29978,-2.571 -0.44602,-5.7663 -0.44324,-9.5858 l 0,-40.70143 -9.49262,0 -0.0786,-10.2823 0,-10.50714 9.25037,0 0,-24.31284 24.85579,0 24.85666,-0.075 0.0813,24.24155 13.43554,0 0.0786,10.50714 0,10.42854 -13.11382,0 z"
       inkscape:connector-curvature="0"
       sodipodi:nodetypes="cccccccccccccccccccccccsccccccccccccccccccccccccccccccccccccccccccccccccccccccccccccccccccccccccccccccccccccccccccccccccccccccccscccccccccccccccccc"
       inkscape:export-filename="C:\xampp\htdocs\oefeningen\showcase\images\logo_tinternet.png"
       inkscape:export-xdpi="90.000008"
       inkscape:export-ydpi="90.000008" />
    <g
       transform="matrix(1.25,0,0,-1.25,57.903287,2898.5752)"
       inkscape:label="e"
       id="g3919">
      <g
         id="g3921" />
    </g>
    <path
       id="path3923-5"
       style="fill:#333333;fill-opacity:0.50980386;fill-rule:nonzero;stroke:none"
       d="m 188.90506,944.93735 c 2.28567,-0.6603 4.72321,-0.99007 7.3141,-0.99079 2.58961,0 5.05351,0.10177 7.39061,0.30477 l 3.20026,0.30522 c 5.0286,0.45747 8.8885,1.04175 11.58049,1.75218 l 0,-0.0759 1.60011,0.68537 c 10.66639,3.30204 18.9711,8.33049 24.9143,15.08537 l 0,-0.076 c 1.37157,1.62603 3.06057,4.07708 5.06654,7.35268 2.00597,3.27639 3.00895,5.54905 3.00961,6.8187 l 0.60934,2.05755 0.38144,2.2095 c 0.96488,3.40327 1.44741,6.24793 1.44741,8.53344 0,2.28617 0.0252,4.03829 0.076,5.25713 l -62.78048,0 0,2.51421 c 0.30409,1.16861 0.45598,2.38744 0.45665,3.65708 0,1.2703 0.0124,2.274 0.038,3.0097 0.025,0.737 0.0889,1.448 0.19065,2.1334 0.10177,0.6862 0.1649,1.2446 0.19063,1.6761 0.0245,0.4324 0.13919,0.94 0.34268,1.5237 0.20302,0.5842 0.31696,0.9777 0.34286,1.1807 0.025,0.2035 0.17778,0.61 0.45729,1.2194 0.27953,0.6094 0.50825,1.1808 0.68602,1.7142 0.17778,0.5333 0.52047,1.0539 1.02823,1.5615 l 0,-0.076 0.83807,1.6001 c 0.96488,1.0675 2.28614,1.8295 3.96229,2.2855 2.79309,-0.6087 4.6851,-2.0563 5.67588,-4.3425 0.99011,-2.2854 1.81532,-5.1301 2.47612,-8.5333 1.8282,-0.5076 4.41845,-0.7615 7.77139,-0.7621 l 9.75231,0.2287 28.11469,0 c -0.61017,6.197 -2.43884,11.8858 -5.4859,17.0662 l 0.076,0 c -2.64186,4.166 -6.75554,7.747 -12.34253,10.7432 -15.79725,5.5367 -25.93081,8.3046 -30.40021,8.3046 -0.81284,0 -1.47314,-0.052 -1.98073,-0.1521 l -1.75283,0 -0.68537,0.076 -0.68554,0 c -0.40699,0 -0.91541,-0.052 -1.52409,-0.1527 -0.50825,0.3041 -1.11759,0.4569 -1.82886,0.4575 l -6.62855,-0.7621 c -0.35556,0.1519 -1.07968,0.228 -2.17088,0.2286 -1.09254,0 -3.94944,-0.686 -8.57154,-2.0567 l 0,0.076 -1.82887,-0.5334 -1.82801,-0.6094 c -7.61951,-2.2348 -14.14699,-6.1584 -19.58193,-11.7712 -5.43494,-5.6126 -8.91405,-12.1524 -10.43766,-19.6197 -0.15254,-0.9142 -0.43158,-2.2985 -0.83808,-4.1524 -0.40584,-1.854 -0.60868,-3.11086 -0.60934,-3.77116 l 0,-3.6569 c 6.6e-4,-0.86335 0.0257,-1.52429 0.076,-1.98154 l 0,-1.14283 c 6.5e-4,-10.76753 3.20024,-20.07521 9.60023,-27.92329 6.39984,-7.84744 14.98424,-13.37127 25.75238,-16.57151 l 1.82819,-0.53347 c 2.692,-0.4566 4.62195,-0.93914 5.79051,-1.4474 l -0.0761,0.076 z m 22.78087,39.16171 1.6001,-0.99014 c -0.86378,-5.4859 -1.67679,-9.00305 -2.43817,-10.55227 -0.76206,-1.54927 -1.49838,-2.88273 -2.20965,-4.00034 -1.32043,-2.13299 -3.06039,-3.1998 -5.21907,-3.1998 -2.15867,0 -3.99973,1.06681 -5.52384,3.1998 -2.69199,3.75879 -4.39401,9.04099 -5.10445,15.84733 3.25054,-0.20283 6.24779,-0.30392 8.99073,-0.30458 l 9.90435,0 z"
       inkscape:connector-curvature="0"
       inkscape:export-filename="C:\xampp\htdocs\oefeningen\showcase\images\logo_tinternet.png"
       inkscape:export-xdpi="90.000008"
       inkscape:export-ydpi="90.000008" />
    <path
       id="path3849"
       style="fill:#333333;fill-opacity:0.5098038;fill-rule:nonzero;stroke:none"
       d="m 475.26641,964.40261 c -0.19299,-2.10891 -0.34887,-3.9045 -0.34887,-5.38926 0,-7.64699 1.20731,-7.6854 5.84603,-7.6854 l 27.59247,0 c -2.66695,-4.68541 -4.20581,-9.52222 -4.20581,-14.43876 0,-14.8008 20.93251,-22.02409 20.93251,-34.35658 0,-4.56726 -1.86546,-8.31994 -3.40178,-13.62692 9.68324,2.73832 17.31799,13.07477 17.31799,24.05087 0,18.85412 -20.56383,19.00596 -20.56383,33.10292 0,1.75698 0.51206,3.32137 0.76193,5.26847 l 20.42036,0 c -0.28944,-1.17405 -0.49235,-2.41985 -0.49235,-3.63239 0,-8.90046 14.28489,-13.23639 14.28489,-20.61125 0,-2.728 -0.34887,-4.99592 -1.17025,-8.19659 4.71541,1.99564 10.34135,7.80613 10.34135,14.36941 0,10.42371 -11.65499,11.4383 -13.44371,18.07082 l 4.78278,0 3.77345,0 28.27415,0 c 4.6387,0 5.84601,0.0378 5.84601,7.69579 0,3.56325 -4.28319,26.64178 -6.87084,33.69153 0,0 -24.80716,0.0225 -50.12075,0.0901 -4.72441,0.0122 -6.23166,-0.16684 -9.56245,-0.14089 -0.29925,0 -0.53705,24.14551 7.2719,24.16831 2.12748,0.01 7.65687,0.2016 8.75033,-12.8603 0,0 2.5859,-0.5846 5.56313,-0.6367 4.89295,-0.085 10.27722,0.057 14.54308,0.1132 14.11375,0.1809 20.17513,-0.2494 19.9685,0.2835 -7.52837,19.3951 -16.10863,26.5621 -22.24663,32.2619 l -0.0269,-0.05 c -1.86536,1.7955 -4.31212,2.8511 -7.01622,2.8511 l -37.40925,0 c -2.70654,0 -5.16076,-1.0556 -7.01624,-2.8511 l -0.0392,0.05 c -3.28548,-3.0412 -7.30573,-6.943 -11.47188,-12.8328 -6.82338,-10.8291 -18.83947,-26.61195 -20.89288,-58.75937 l 0.0294,0 z m 14.29222,47.86279 c -1.46952,-3.121 -3.62566,-6.0201 -5.01605,-9.6138 -1.84595,-4.77146 21.99791,-17.26555 41.25904,-18.97724 7.33116,-0.65174 13.37259,-0.58134 17.40266,-0.40443 0.3558,0.0149 0.65874,-0.36969 1.0067,-0.57166 0.30964,-0.17964 0.68473,-0.15214 0.70605,-0.51925 0.10758,-1.85068 -1.95276,-10.21521 -3.27773,-12.67873 -2.50187,-4.65148 -1.96701,-3.76433 -5.51839,-5.07381 -3.29913,0.123 -4.68501,1.447 -5.31922,2.37294 -2.82705,4.12732 -3.58872,5.9201 -4.72746,10.55581 -0.26245,1.0684 -0.46205,2.73683 -0.70654,4.65299 -0.0888,0.69679 -1.81932,8.62315 -1.25777,5.2592 0.62607,-3.74978 -32.31932,31.23538 -34.55129,24.99798 z"
       inkscape:connector-curvature="0"
       inkscape:export-filename="C:\xampp\htdocs\oefeningen\showcase\images\logo_tinternet.png"
       inkscape:export-xdpi="90.000008"
       inkscape:export-ydpi="90.000008"
       sodipodi:nodetypes="csscsscssccsscscccssssssssscccssccccccccssssscssssc" />
    <path
       style="fill:none;stroke:#000000;stroke-width:1px;stroke-linecap:butt;stroke-linejoin:miter;stroke-opacity:1"
       d="m 59.746423,115.57747 c 6.904017,1.27574 -58.6720692,1.46958 -66.6905874,0.38035 -0.7588423,-8.16229 -0.8315176,-22.661741 -0.2271574,-26.348911 6.81358958,-0.20228 63.3187238,-0.10986 66.8908928,-0.27116 2.346933,-0.10598 0.361946,26.407271 0.361946,26.407271"
       id="path3994"
       inkscape:connector-curvature="0"
       sodipodi:nodetypes="ccccc" />
    <path
       style="fill:#333333;fill-opacity:0.5098038;stroke:none"
       d="m -176.92641,996.62129 c -5.60506,1.03572 47.63323,1.19308 54.1431,0.30879 0.61607,-6.6266 0.67508,-18.39805 0.18442,-21.3915 -5.53165,-0.16422 -51.40563,-0.0892 -54.30572,-0.22014 -1.90537,-0.086 -0.29384,21.43888 -0.29384,21.43888"
       id="path3994-4"
       inkscape:connector-curvature="0"
       sodipodi:nodetypes="ccccc"
       inkscape:export-filename="C:\xampp\htdocs\oefeningen\showcase\images\logo_tinternet.png"
       inkscape:export-xdpi="90.000008"
       inkscape:export-ydpi="90.000008" />
    <path
       id="path3845-6"
       style="fill:#333333;fill-opacity:0.5098038;fill-rule:nonzero;stroke:none"
       d="m -104.78764,777.05692 c 0,4.95646 -0.53135,7.43217 -1.57897,7.42547 -0.005,0.007 -27.15913,-0.22293 -81.464,-0.67549 -0.30841,14.55594 -0.45927,37.28828 -0.45256,68.19368 -0.007,30.91043 0.072,52.36721 0.22963,64.36194 l 0.89676,119.27178 c -0.75931,2.0952 -2.25782,3.22 -4.49719,3.3775 l -47.48282,-0.6738 -0.22964,0.2229 -14.85095,-0.2229 -41.18374,0 c -11.10468,0 -19.43362,0.072 -24.97842,0.2229 l -3.83007,-3.3792 c -0.15086,-0.1508 -1.12639,-1.3426 -2.9266,-3.5937 -0.007,-13.1999 0.51626,-42.533 1.57728,-87.99925 l 2.47571,-119.72284 -0.45257,-5.62526 c -1.05431,-14.84927 -2.0617,-23.66263 -3.03891,-26.44509 -0.97553,-2.76904 -2.88638,-4.26922 -5.73421,-4.49887 -2.85621,-0.22125 -4.95646,-0.33354 -6.29908,-0.34026 l -9.00276,0.45257 -55.81175,-0.89675 c -1.95108,-3.89712 -2.91991,-12.67694 -2.92661,-26.33445 l 0.45089,-19.80742 0,-6.07616 c -0.15086,-23.99618 -0.37211,-36.82398 -0.67382,-38.48005 0.30171,0.007 0.89005,0.15757 1.7935,0.45257 l 286.48927,-2.47571 c 5.84149,0.007 9.5207,0.41904 11.02591,1.23701 1.50018,0.83306 2.24608,2.36509 2.25278,4.6095 l 0,59.41386 0.22294,18.00552 z"
       inkscape:connector-curvature="0"
       inkscape:export-filename="C:\xampp\htdocs\oefeningen\showcase\images\logo_tinternet.png"
       inkscape:export-xdpi="90.000008"
       inkscape:export-ydpi="90.000008" />
    <path
       style="fill:#333333;fill-opacity:0.5098038;stroke:none"
       d="m -66.738646,940.06628 c 4.869541,0.8998 -41.382564,1.03652 -47.038184,0.26827 -0.53523,-5.75703 -0.58649,-15.98378 -0.16022,-18.5844 4.80576,-0.14268 44.659943,-0.0775 47.179467,-0.19127 1.655336,-0.0748 0.255289,18.62557 0.255289,18.62557"
       id="path3994-4-5"
       inkscape:connector-curvature="0"
       sodipodi:nodetypes="ccccc"
       inkscape:export-filename="C:\xampp\htdocs\oefeningen\showcase\images\logo_tinternet.png"
       inkscape:export-xdpi="90.000008"
       inkscape:export-ydpi="90.000008" />
    <path
       id="path3841-5"
       style="fill:#333333;fill-opacity:0.5098038;fill-rule:nonzero;stroke:none"
       d="m 122.20757,1001.9032 -0.0814,1.1366 c 0,1.7691 0.0659,3.0676 0.20625,3.8991 0.13938,0.8341 0.7062,1.8162 1.69869,2.9489 0.99331,1.1365 4.22287,1.7071 9.69537,1.7033 l 2.24006,0.073 c 0.82385,0 1.57054,-0.073 2.23625,-0.2241 l 0.0845,28.2286 -45.332416,0 -2.817173,0.1506 -0.911414,0 c -2.048956,0 -4.285202,-0.6064 -6.716361,-1.8162 -2.431159,-1.21 -4.240904,-2.2806 -5.425423,-3.2147 -1.188227,-0.9312 -2.195759,-2.1298 -3.023315,-3.5977 -1.547972,-2.7212 -2.475457,-5.4066 -2.776789,-8.0581 -0.308853,-2.6486 -0.459468,-5.9404 -0.456583,-9.8752 l 0,-41.93044 -9.779339,0 -0.08138,-10.59278 0,-10.82448 9.529722,0 0,-25.04694 25.606338,0 25.607263,-0.0773 0.0834,24.97349 13.84119,0 0.0814,10.82447 0,10.74339 -13.50978,0 z"
       inkscape:connector-curvature="0"
       sodipodi:nodetypes="cccccccccccscccccccccccccccccc"
       inkscape:export-filename="C:\xampp\htdocs\oefeningen\showcase\images\logo_tinternet.png"
       inkscape:export-xdpi="90.000008"
       inkscape:export-ydpi="90.000008" />
  </g>
</svg>
