<?xml version="1.0" encoding="UTF-8" standalone="no"?>
<!-- Created with Inkscape (http://www.inkscape.org/) -->

<svg
   xmlns:dc="http://purl.org/dc/elements/1.1/"
   xmlns:cc="http://creativecommons.org/ns#"
   xmlns:rdf="http://www.w3.org/1999/02/22-rdf-syntax-ns#"
   xmlns:svg="http://www.w3.org/2000/svg"
   xmlns="http://www.w3.org/2000/svg"
   xmlns:sodipodi="http://sodipodi.sourceforge.net/DTD/sodipodi-0.dtd"
   xmlns:inkscape="http://www.inkscape.org/namespaces/inkscape"
   width="1080"
   height="258.08728"
   id="svg2"
   version="1.1"
   inkscape:version="0.48.5 r10040"
   sodipodi:docname="tea internet.svg">
  <defs
     id="defs4" />
  <sodipodi:namedview
     id="base"
     pagecolor="#ffffff"
     bordercolor="#666666"
     borderopacity="1.0"
     inkscape:pageopacity="0.0"
     inkscape:pageshadow="2"
     inkscape:zoom="1.4"
     inkscape:cx="101.31745"
     inkscape:cy="23.422433"
     inkscape:document-units="px"
     inkscape:current-layer="layer1"
     showgrid="false"
     showguides="true"
     inkscape:guide-bbox="true"
     fit-margin-top="0"
     fit-margin-left="0"
     fit-margin-right="0"
     fit-margin-bottom="0"
     inkscape:window-width="1280"
     inkscape:window-height="961"
     inkscape:window-x="1912"
     inkscape:window-y="-8"
     inkscape:window-maximized="1" />
  <metadata
     id="metadata7">
    <rdf:RDF>
      <cc:Work
         rdf:about="">
        <dc:format>image/svg+xml</dc:format>
        <dc:type
           rdf:resource="http://purl.org/dc/dcmitype/StillImage" />
        <dc:title></dc:title>
      </cc:Work>
    </rdf:RDF>
  </metadata>
  <g
     inkscape:label="Layer 1"
     inkscape:groupmode="layer"
     id="layer1"
     transform="translate(0,-794.27491)">
    <flowRoot
       xml:space="preserve"
       id="flowRoot2985"
       style="font-size:40px;font-style:normal;font-weight:normal;line-height:125%;letter-spacing:0px;word-spacing:0px;fill:#2c5817;fill-opacity:0.50980395;stroke:none;font-family:Sans"
       transform="matrix(5.6328964,0,0,5.1440316,-1065.9355,-960.9896)"><flowRegion
         id="flowRegion2987"><rect
           id="rect2989"
           width="337.14285"
           height="171.42857"
           x="188.57143"
           y="355.21933"
           style="fill:#2c5817;fill-opacity:0.50980395" /></flowRegion><flowPara
         id="flowPara2991"
         style="font-style:normal;font-variant:normal;font-weight:normal;font-stretch:normal;fill:#2c5817;fill-opacity:0.50980395;font-family:Bowlby One;-inkscape-font-specification:Bowlby One">internet</flowPara></flowRoot>    <rect
       style="fill:#ffffff;fill-opacity:1;stroke:none"
       id="rect3773"
       width="110.08681"
       height="182.10622"
       x="242.70114"
       y="869.22717" />
    <flowRoot
       xml:space="preserve"
       id="flowRoot3765"
       style="font-size:40px;font-style:normal;font-weight:normal;line-height:125%;letter-spacing:0px;word-spacing:0px;fill:#2c5817;fill-opacity:0.50980395;stroke:none;font-family:Sans"
       transform="matrix(8.5927434,0,0,8.5927434,-370.99241,-5497.1001)"><flowRegion
         id="flowRegion3767"><rect
           id="rect3769"
           width="260.61935"
           height="141.42136"
           x="64.649765"
           y="726.08289"
           style="fill:#2c5817;fill-opacity:0.50980395" /></flowRegion><flowPara
         id="flowPara3771"
         style="font-style:normal;font-variant:normal;font-weight:normal;font-stretch:normal;fill:#2c5817;fill-opacity:0.50980395;font-family:Bowlby One;-inkscape-font-specification:Bowlby One">T</flowPara></flowRoot>    <rect
       style="fill:#ffffff;fill-opacity:1;stroke:none"
       id="rect3812"
       width="79.561844"
       height="85.924004"
       x="0.58121252"
       y="838.36169" />
    <path
       id="path3785"
       d="m 11.998882,882.26951 c -0.100737,-1.02653 -0.176432,-1.90015 -0.176432,-2.62154 0,-3.72321 0.60964,-3.74216 2.953668,-3.74216 h 13.937497 c -1.347723,-2.27858 -2.123619,-4.63517 -2.123619,-7.02858 0,-7.19971 10.57777,-10.71401 10.57777,-16.71686 0,-2.22157 -0.942148,-4.04622 -1.71804,-6.62967 4.891863,1.32985 8.750143,6.3637 8.750143,11.70191 0,9.17496 -10.393112,9.25094 -10.393112,16.10872 0,0.85543 0.259475,1.61495 0.387945,2.56371 h 10.319389 c -0.151167,-0.57028 -0.25191,-1.17689 -0.25191,-1.76532 0,-4.33111 7.218021,-6.43964 7.218021,-10.03017 0,-1.3298 -0.176344,-2.43152 -0.58948,-3.98919 2.380572,0.9695 5.224402,3.79944 5.224402,6.99078 0,5.07198 -5.888939,5.56578 -6.79356,8.79522 h 18.608198 c 2.34529,0 2.953659,0.0183 2.953659,3.74212 0,3.72353 -1.420776,11.64491 -5.224389,21.0861 -3.802861,9.4412 -8.196442,13.60124 -11.297718,16.37468 l -0.01609,-0.0261 C 53.40308,917.95674 52.166191,918.47 50.80083,918.47 H 31.897398 c -1.365359,0 -2.60301,-0.51326 -3.544394,-1.38684 l -0.0165,0.0261 c -1.662603,-1.48277 -3.692003,-3.38131 -5.796487,-6.24965 -0.866559,0.38106 -1.808718,0.7025 -2.842795,0.94878 -1.551781,0.38106 -3.10129,0.5703 -4.57826,0.5703 -4.430365,0 -8.4178605,-1.74719 -11.2239047,-4.9009 C 1.4212828,904.70432 0,900.94299 0,897.18163 0,889.79219 5.1687338,883.61828 11.980651,882.26951 z m 3.138312,24.08738 c 1.587052,0 2.879587,-0.2333 4.079704,-0.79841 -0.738101,-1.51907 -1.458553,-3.02021 -2.158881,-4.7679 -1.864152,-4.63519 -3.156691,-8.92847 -3.987497,-12.49981 -4.0613247,0.81658 -7.1442206,4.52138 -7.1442206,8.94737 0,4.31222 3.1753528,9.11822 9.2118966,9.11822 z"
       inkscape:connector-curvature="0"
       style="fill:#2c5817;fill-opacity:0.50980395" />
  </g>
</svg>
